<svg width="136" height="50" viewBox="0 0 136 50" fill="none" xmlns="http://www.w3.org/2000/svg">
<path d="M100.605 3.25879H81.5172C79.7016 3.27431 76.0703 4.8789 76.0703 11.1731C76.241 13.0198 77.5694 16.7132 81.5172 16.7132H92.737C94.0871 16.7132 96.9269 17.8957 96.9269 22.067" stroke="#091D3E" stroke-width="6.23836"/>
<path d="M72.4392 30.4004H91.5267C93.3423 30.3849 96.9736 28.7803 96.9736 22.4861C96.8029 20.6394 95.4746 16.946 91.5267 16.946H80.307C78.9569 16.946 76.117 15.7635 76.117 11.5922" stroke="#091D3E" stroke-width="6.23836"/>
<path d="M69.5061 3.25879H50.4186C48.603 3.27431 44.9717 4.8789 44.9717 11.1731C45.1424 13.0198 46.4707 16.7132 50.4186 16.7132H61.6383C62.9884 16.7132 65.8283 17.8957 65.8283 22.067" stroke="#091D3E" stroke-width="6.23836"/>
<path d="M41.3405 30.4004H60.4281C62.2437 30.3849 65.875 28.7803 65.875 22.4861C65.7043 20.6394 64.3759 16.946 60.4281 16.946H49.2083C47.8582 16.946 45.0184 15.7635 45.0184 11.5922" stroke="#091D3E" stroke-width="6.23836"/>
<rect x="105.773" width="28.9572" height="6.31926" fill="#091D3E"/>
<rect x="123.93" y="5.03711" width="28.4825" height="7.16946" transform="rotate(90 123.93 5.03711)" fill="#091D3E"/>
<path d="M14.5257 33.8919C14.5257 19.0409 5.02854 13.3612 0.373047 12.337V7.44873C20.0658 14.8044 23.2315 28.4916 23.2315 33.8919H14.5257Z" fill="#FF3514"/>
<path d="M34.4047 0H0.512695V5.77281C30.1216 16.3873 24.6281 27.157 26.0714 34.0317H34.4047C34.4047 16.2663 12.5239 5.74178 1.58346 2.70019C17.2632 4.86034 29.9975 14.7734 34.4047 19.46V0Z" fill="#FF3514"/>
<path d="M12.2449 33.9852C11.5 22.7748 4.05121 17.0858 0.419922 15.6426V33.9852H12.2449Z" fill="#FF3514"/>
<path d="M0.37207 38.8267H134.73" stroke="#091D3E" stroke-width="0.558659"/>
<path d="M2.37177 46.8251C2.0276 46.8251 1.6959 46.7852 1.37667 46.7054C1.06243 46.6256 0.788095 46.5059 0.553661 46.3463C0.45889 46.2815 0.401529 46.2042 0.381577 46.1144C0.361626 46.0196 0.369108 45.9348 0.404023 45.86C0.443927 45.7802 0.501288 45.7253 0.576107 45.6954C0.655914 45.6655 0.745697 45.6829 0.845456 45.7478C1.06991 45.8924 1.30684 45.9996 1.55624 46.0695C1.80563 46.1343 2.07748 46.1667 2.37177 46.1667C2.79574 46.1667 3.10749 46.0919 3.307 45.9423C3.51151 45.7877 3.61376 45.5881 3.61376 45.3437C3.61376 45.1442 3.54144 44.9871 3.39679 44.8724C3.25214 44.7527 3.01022 44.6579 2.67104 44.5881L1.87048 44.4235C1.39662 44.3237 1.04248 44.1591 0.808046 43.9297C0.578601 43.7002 0.463878 43.391 0.463878 43.0019C0.463878 42.6877 0.546179 42.4108 0.710781 42.1714C0.880371 41.932 1.1148 41.7474 1.41408 41.6177C1.71336 41.4831 2.05753 41.4157 2.44658 41.4157C2.75584 41.4157 3.04514 41.4556 3.31449 41.5354C3.58882 41.6152 3.83323 41.7375 4.04771 41.9021C4.13251 41.9619 4.18239 42.0342 4.19735 42.119C4.21232 42.2038 4.19985 42.2836 4.15994 42.3584C4.12004 42.4283 4.06018 42.4757 3.98038 42.5006C3.90057 42.5255 3.80829 42.5056 3.70355 42.4408C3.50902 42.3111 3.3095 42.2188 3.10499 42.1639C2.90049 42.1041 2.67852 42.0741 2.4391 42.0741C2.07 42.0741 1.77571 42.1564 1.55624 42.321C1.34176 42.4856 1.23452 42.7051 1.23452 42.9794C1.23452 43.1889 1.30185 43.356 1.43653 43.4807C1.5712 43.6054 1.79566 43.7002 2.1099 43.765L2.90298 43.9297C3.40178 44.0344 3.77338 44.1965 4.01779 44.416C4.26219 44.6305 4.3844 44.9223 4.3844 45.2914C4.3844 45.6006 4.3021 45.87 4.1375 46.0994C3.97289 46.3288 3.74096 46.5084 3.44168 46.6381C3.1424 46.7628 2.78576 46.8251 2.37177 46.8251ZM20.8376 46.8251C20.3339 46.8251 19.8974 46.7154 19.5283 46.4959C19.1592 46.2715 18.8724 45.9572 18.6679 45.5532C18.4684 45.1442 18.3686 44.6654 18.3686 44.1167C18.3686 43.563 18.4684 43.0842 18.6679 42.6802C18.8724 42.2761 19.1592 41.9644 19.5283 41.7449C19.8974 41.5255 20.3339 41.4157 20.8376 41.4157C21.3364 41.4157 21.7704 41.5255 22.1395 41.7449C22.5136 41.9644 22.8004 42.2761 22.9999 42.6802C23.2044 43.0842 23.3067 43.5605 23.3067 44.1092C23.3067 44.6629 23.2044 45.1442 22.9999 45.5532C22.8004 45.9572 22.5136 46.2715 22.1395 46.4959C21.7704 46.7154 21.3364 46.8251 20.8376 46.8251ZM20.8376 46.1518C21.3614 46.1518 21.7679 45.9747 22.0572 45.6206C22.3515 45.2614 22.4986 44.7601 22.4986 44.1167C22.4986 43.4733 22.354 42.9745 22.0647 42.6203C21.7754 42.2662 21.3664 42.0891 20.8376 42.0891C20.3139 42.0891 19.9049 42.2662 19.6106 42.6203C19.3213 42.9745 19.1767 43.4733 19.1767 44.1167C19.1767 44.7601 19.3213 45.2614 19.6106 45.6206C19.9049 45.9747 20.3139 46.1518 20.8376 46.1518ZM38.0415 46.8102C37.7671 46.8102 37.63 46.673 37.63 46.3987V41.9021C37.63 41.6227 37.7696 41.4831 38.049 41.4831H40.7125C40.927 41.4831 41.0342 41.5853 41.0342 41.7898C41.0342 42.0043 40.927 42.1115 40.7125 42.1115H38.4081V43.795H40.5629C40.7774 43.795 40.8846 43.8972 40.8846 44.1017C40.8846 44.3162 40.7774 44.4235 40.5629 44.4235H38.4081V46.3987C38.4081 46.673 38.2859 46.8102 38.0415 46.8102ZM56.7584 46.8102C56.499 46.8102 56.3693 46.678 56.3693 46.4136V42.134H54.7831C54.5587 42.134 54.4464 42.0243 54.4464 41.8048C54.4464 41.5903 54.5587 41.4831 54.7831 41.4831H58.7261C58.9555 41.4831 59.0703 41.5903 59.0703 41.8048C59.0703 42.0243 58.9555 42.134 58.7261 42.134H57.1399V46.4136C57.1399 46.678 57.0127 46.8102 56.7584 46.8102ZM74.8122 46.8102C74.6027 46.8102 74.4581 46.698 74.3782 46.4735L72.7696 41.8871C72.7247 41.7574 72.7322 41.6502 72.7921 41.5654C72.8569 41.4756 72.9617 41.4307 73.1063 41.4307C73.2161 41.4307 73.3009 41.4556 73.3607 41.5055C73.4256 41.5554 73.4754 41.6352 73.5103 41.7449L74.8346 45.6355L76.1889 41.7599C76.2737 41.5404 76.4058 41.4307 76.5854 41.4307C76.6852 41.4307 76.7625 41.4581 76.8173 41.513C76.8772 41.5679 76.9296 41.6527 76.9745 41.7674L78.3137 45.6804L79.668 41.7449C79.7029 41.6402 79.7503 41.5629 79.8101 41.513C79.875 41.4581 79.9598 41.4307 80.0645 41.4307C80.1942 41.4307 80.289 41.4756 80.3488 41.5654C80.4137 41.6502 80.4211 41.7574 80.3713 41.8871L78.7552 46.481C78.7103 46.5907 78.6554 46.673 78.5906 46.7279C78.5257 46.7828 78.4384 46.8102 78.3287 46.8102C78.214 46.8102 78.1242 46.7828 78.0593 46.7279C77.9945 46.673 77.9421 46.5882 77.9022 46.4735L76.5704 42.6577L75.2237 46.481C75.1838 46.5907 75.1314 46.673 75.0666 46.7279C75.0067 46.7828 74.9219 46.8102 74.8122 46.8102ZM94.1513 46.8102C94.0017 46.8102 93.8969 46.7628 93.8371 46.668C93.7822 46.5683 93.7872 46.4486 93.852 46.3089L95.8796 41.7599C95.9295 41.6452 95.9918 41.5629 96.0667 41.513C96.1415 41.4581 96.2288 41.4307 96.3285 41.4307C96.4183 41.4307 96.5006 41.4581 96.5754 41.513C96.6552 41.5629 96.7201 41.6452 96.77 41.7599L98.7976 46.3089C98.8624 46.4535 98.8674 46.5733 98.8125 46.668C98.7627 46.7628 98.6654 46.8102 98.5207 46.8102C98.411 46.8102 98.3237 46.7828 98.2589 46.7279C98.194 46.673 98.1367 46.5882 98.0868 46.4735L97.6528 45.4709H94.9818L94.5553 46.4735C94.5054 46.5932 94.4506 46.6805 94.3907 46.7354C94.3309 46.7852 94.2511 46.8102 94.1513 46.8102ZM96.3136 42.3435L95.2586 44.8424H97.391L96.3285 42.3435H96.3136ZM113.36 46.8102C113.1 46.8102 112.971 46.678 112.971 46.4136V41.8796C112.971 41.6152 113.103 41.4831 113.367 41.4831H115.155C115.724 41.4831 116.163 41.6202 116.472 41.8946C116.782 42.1639 116.936 42.543 116.936 43.0318C116.936 43.4259 116.831 43.7501 116.622 44.0045C116.412 44.2539 116.116 44.421 115.732 44.5058C115.971 44.5856 116.173 44.7776 116.338 45.0819L116.981 46.279C117.056 46.4136 117.071 46.5358 117.026 46.6456C116.981 46.7553 116.879 46.8102 116.719 46.8102C116.609 46.8102 116.52 46.7877 116.45 46.7428C116.38 46.698 116.32 46.6256 116.27 46.5259L115.485 45.0744C115.38 44.8799 115.258 44.7502 115.118 44.6853C114.983 44.6155 114.809 44.5806 114.594 44.5806H113.749V46.4136C113.749 46.678 113.619 46.8102 113.36 46.8102ZM113.749 43.997H115.028C115.796 43.997 116.18 43.6803 116.18 43.0468C116.18 42.4183 115.796 42.1041 115.028 42.1041H113.749V43.997ZM131.734 46.7578C131.454 46.7578 131.315 46.6182 131.315 46.3388V41.9021C131.315 41.6227 131.454 41.4831 131.734 41.4831H134.464C134.679 41.4831 134.786 41.5853 134.786 41.7898C134.786 42.0043 134.679 42.1115 134.464 42.1115H132.063V43.765H134.3C134.514 43.765 134.622 43.8698 134.622 44.0793C134.622 44.2888 134.514 44.3935 134.3 44.3935H132.063V46.1293H134.464C134.679 46.1293 134.786 46.2341 134.786 46.4436C134.786 46.6531 134.679 46.7578 134.464 46.7578H131.734Z" fill="#091D3E"/>
</svg>
