<svg width="190" height="49" viewBox="0 0 190 49" fill="none" xmlns="http://www.w3.org/2000/svg">
<path d="M141.373 5.59668H114.451C111.89 5.61857 106.769 7.88177 106.769 16.7595C107.009 19.3641 108.883 24.5734 114.451 24.5734H130.276C132.18 24.5734 136.186 26.2413 136.186 32.1247" stroke="#003461" stroke-width="9.4255"/>
<path d="M101.647 43.8779H128.569C131.13 43.856 136.252 41.5928 136.252 32.7151C136.011 30.1105 134.138 24.9012 128.569 24.9012H112.744C110.84 24.9012 106.835 23.2333 106.835 17.3499" stroke="#003461" stroke-width="9.4255"/>
<path d="M97.5109 5.59668H70.5889C68.028 5.61857 62.9062 7.88177 62.9062 16.7595C63.147 19.3641 65.0206 24.5734 70.5889 24.5734H86.4138C88.318 24.5734 92.3235 26.2413 92.3235 32.1247" stroke="#003461" stroke-width="9.4255"/>
<path d="M57.785 43.8779H84.707C87.2679 43.856 92.3896 41.5928 92.3896 32.7151C92.1489 30.1105 90.2753 24.9012 84.707 24.9012H68.8821C66.9779 24.9012 62.9724 23.2333 62.9724 17.3499" stroke="#003461" stroke-width="9.4255"/>
<rect x="148.662" y="1" width="40.8427" height="8.91301" fill="#003461"/>
<rect x="174.271" y="8.10449" width="40.1731" height="10.1122" transform="rotate(90 174.271 8.10449)" fill="#003461"/>
<path d="M19.9617 48.8027C19.9617 27.8561 6.56635 19.8451 0 18.4005V11.5059C27.7756 21.8807 32.2408 41.1858 32.2408 48.8027H19.9617Z" fill="#4BFF2A"/>
<path d="M48.0003 1H0.197266V9.14227C41.9592 24.1135 34.2109 39.3037 36.2465 49H48.0003C48.0003 23.9428 17.1384 9.0985 1.70753 4.80848C23.823 7.85527 41.7841 21.8372 48.0003 28.4473V1Z" fill="#4BFF2A"/>
<path d="M16.744 48.9339C15.6933 33.1221 5.18718 25.0981 0.0654297 23.0625V48.9339H16.744Z" fill="#4BFF2A"/>
</svg>
