<svg width="164" height="60" viewBox="0 0 164 60" fill="none" xmlns="http://www.w3.org/2000/svg">
<path d="M121.313 3.92969H98.2966C96.1073 3.9484 91.7285 5.88328 91.7285 13.4731C91.9344 15.6999 93.5362 20.1535 98.2966 20.1535H111.826C113.454 20.1535 116.878 21.5794 116.878 26.6094" stroke="white" stroke-width="6.67166"/>
<path d="M87.3499 36.6577H110.366C112.556 36.639 116.935 34.7041 116.935 27.1143C116.729 24.8875 115.127 20.4339 110.366 20.4339H96.8372C95.2092 20.4339 91.7848 19.008 91.7848 13.978" stroke="white" stroke-width="6.67166"/>
<path d="M83.8132 3.9292H60.7966C58.6073 3.94791 54.2285 5.8828 54.2285 13.4726C54.4344 15.6994 56.0362 20.153 60.7966 20.153H74.3259C75.9539 20.153 79.3783 21.5789 79.3783 26.6089" stroke="white" stroke-width="6.67166"/>
<path d="M49.8499 36.6577H72.8664C75.0558 36.639 79.4346 34.7041 79.4346 27.1143C79.2287 24.8875 77.6269 20.4339 72.8664 20.4339H59.3372C57.7092 20.4339 54.2848 19.008 54.2848 13.978" stroke="white" stroke-width="6.67166"/>
<rect x="127.546" width="34.9177" height="7.62002" fill="white"/>
<rect x="149.44" y="6.07422" width="34.3453" height="8.64523" transform="rotate(90 149.44 6.07422)" fill="white"/>
<path d="M17.5141 40.8677C17.5141 22.9598 6.06203 16.111 0.448242 14.8759V8.98145C24.1945 17.8512 28.0119 34.3557 28.0119 40.8677H17.5141Z" fill="#FF3514"/>
<path d="M41.4855 0H0.617188V6.96109C36.3209 19.7605 29.6966 32.7471 31.4369 41.0368H41.4855C41.4855 19.6146 15.1008 6.92367 1.90836 3.25599C20.8156 5.86079 36.1712 17.8144 41.4855 23.4656V0Z" fill="#FF3514"/>
<path d="M14.7629 40.9806C13.8647 27.4626 4.88266 20.6026 0.503906 18.8623V40.9806H14.7629Z" fill="#FF3514"/>
<path d="M0.449219 46.8188H162.463" stroke="white" stroke-width="0.597462"/>
<path d="M2.5365 56.0134C2.16843 56.0134 1.81369 55.9707 1.47229 55.8854C1.13623 55.8 0.842834 55.672 0.592117 55.5013C0.490764 55.432 0.429418 55.3493 0.408081 55.2533C0.386743 55.1519 0.394745 55.0612 0.432086 54.9812C0.474761 54.8959 0.536106 54.8372 0.616122 54.8052C0.701472 54.7732 0.797491 54.7918 0.904179 54.8612C1.14423 55.0159 1.39761 55.1306 1.66433 55.2053C1.93105 55.2746 2.22177 55.3093 2.5365 55.3093C2.98993 55.3093 3.32332 55.2293 3.5367 55.0692C3.75541 54.9039 3.86477 54.6905 3.86477 54.4291C3.86477 54.2157 3.78742 54.0477 3.63272 53.925C3.47802 53.797 3.2193 53.6956 2.85657 53.6209L2.0004 53.4449C1.49363 53.3382 1.11489 53.1622 0.864171 52.9168C0.618789 52.6714 0.496098 52.3407 0.496098 51.9246C0.496098 51.5885 0.584116 51.2925 0.760151 51.0364C0.94152 50.7804 1.19224 50.583 1.5123 50.4443C1.83236 50.3003 2.20044 50.2283 2.61652 50.2283C2.94725 50.2283 3.25664 50.271 3.5447 50.3563C3.83809 50.4417 4.09948 50.5723 4.32886 50.7484C4.41954 50.8124 4.47289 50.8897 4.48889 50.9804C4.50489 51.0711 4.49156 51.1565 4.44888 51.2365C4.40621 51.3112 4.34219 51.3618 4.25684 51.3885C4.17149 51.4152 4.07281 51.3938 3.96078 51.3245C3.75274 51.1858 3.53937 51.0871 3.32066 51.0284C3.10195 50.9644 2.86457 50.9324 2.60852 50.9324C2.21377 50.9324 1.89904 51.0204 1.66433 51.1965C1.43495 51.3725 1.32026 51.6072 1.32026 51.9006C1.32026 52.1247 1.39228 52.3034 1.5363 52.4367C1.68033 52.5701 1.92038 52.6714 2.25645 52.7408L3.10461 52.9168C3.63805 53.0288 4.03547 53.2022 4.29685 53.4369C4.55824 53.6663 4.68893 53.9784 4.68893 54.3731C4.68893 54.7038 4.60091 54.9919 4.42488 55.2373C4.24884 55.4826 4.00079 55.6747 3.68073 55.8134C3.36067 55.9467 2.97926 56.0134 2.5365 56.0134ZM24.8455 56.0134C24.3067 56.0134 23.8399 55.8961 23.4452 55.6614C23.0505 55.4213 22.7437 55.0852 22.525 54.6532C22.3116 54.2157 22.205 53.7036 22.205 53.1168C22.205 52.5247 22.3116 52.0126 22.525 51.5805C22.7437 51.1485 23.0505 50.8151 23.4452 50.5803C23.8399 50.3456 24.3067 50.2283 24.8455 50.2283C25.3789 50.2283 25.843 50.3456 26.2378 50.5803C26.6378 50.8151 26.9446 51.1485 27.1579 51.5805C27.3767 52.0126 27.486 52.5221 27.486 53.1088C27.486 53.701 27.3767 54.2157 27.1579 54.6532C26.9446 55.0852 26.6378 55.4213 26.2378 55.6614C25.843 55.8961 25.3789 56.0134 24.8455 56.0134ZM24.8455 55.2933C25.4056 55.2933 25.8403 55.1039 26.1497 54.7252C26.4645 54.3411 26.6218 53.805 26.6218 53.1168C26.6218 52.4287 26.4671 51.8953 26.1577 51.5165C25.8483 51.1378 25.4109 50.9484 24.8455 50.9484C24.2854 50.9484 23.848 51.1378 23.5332 51.5165C23.2238 51.8953 23.0691 52.4287 23.0691 53.1168C23.0691 53.805 23.2238 54.3411 23.5332 54.7252C23.848 55.1039 24.2854 55.2933 24.8455 55.2933ZM45.8048 55.9974C45.5114 55.9974 45.3647 55.8507 45.3647 55.5573V50.7484C45.3647 50.4497 45.514 50.3003 45.8128 50.3003H48.6613C48.8907 50.3003 49.0054 50.4096 49.0054 50.6284C49.0054 50.8577 48.8907 50.9724 48.6613 50.9724H46.1968V52.7728H48.5013C48.7307 52.7728 48.8454 52.8821 48.8454 53.1008C48.8454 53.3302 48.7307 53.4449 48.5013 53.4449H46.1968V55.5573C46.1968 55.8507 46.0661 55.9974 45.8048 55.9974ZM68.3822 55.9974C68.1048 55.9974 67.9661 55.8561 67.9661 55.5733V50.9964H66.2697C66.0297 50.9964 65.9097 50.8791 65.9097 50.6444C65.9097 50.415 66.0297 50.3003 66.2697 50.3003H70.4866C70.732 50.3003 70.8547 50.415 70.8547 50.6444C70.8547 50.8791 70.732 50.9964 70.4866 50.9964H68.7902V55.5733C68.7902 55.8561 68.6542 55.9974 68.3822 55.9974ZM90.2505 55.9974C90.0265 55.9974 89.8718 55.8774 89.7864 55.6373L88.0661 50.7324C88.0181 50.5937 88.0261 50.479 88.0901 50.3883C88.1594 50.2923 88.2714 50.2443 88.4261 50.2443C88.5435 50.2443 88.6342 50.271 88.6982 50.3243C88.7675 50.3776 88.8209 50.463 88.8582 50.5803L90.2745 54.7412L91.7228 50.5963C91.8135 50.3616 91.9548 50.2443 92.1469 50.2443C92.2536 50.2443 92.3362 50.2736 92.3949 50.3323C92.4589 50.391 92.5149 50.4817 92.563 50.6043L93.9952 54.7892L95.4435 50.5803C95.4809 50.4683 95.5315 50.3856 95.5956 50.3323C95.6649 50.2736 95.7556 50.2443 95.8676 50.2443C96.0063 50.2443 96.1077 50.2923 96.1717 50.3883C96.241 50.479 96.249 50.5937 96.1957 50.7324L94.4673 55.6453C94.4193 55.7627 94.3606 55.8507 94.2913 55.9094C94.2219 55.9681 94.1286 55.9974 94.0112 55.9974C93.8885 55.9974 93.7925 55.9681 93.7232 55.9094C93.6538 55.8507 93.5978 55.76 93.5552 55.6373L92.1309 51.5565L90.6906 55.6453C90.6479 55.7627 90.5919 55.8507 90.5225 55.9094C90.4585 55.9681 90.3679 55.9974 90.2505 55.9974ZM113.493 55.9974C113.333 55.9974 113.221 55.9467 113.157 55.8454C113.099 55.7387 113.104 55.6107 113.173 55.4613L115.342 50.5963C115.395 50.4737 115.462 50.3856 115.542 50.3323C115.622 50.2736 115.715 50.2443 115.822 50.2443C115.918 50.2443 116.006 50.2736 116.086 50.3323C116.171 50.3856 116.241 50.4737 116.294 50.5963L118.462 55.4613C118.532 55.616 118.537 55.744 118.478 55.8454C118.425 55.9467 118.321 55.9974 118.166 55.9974C118.049 55.9974 117.956 55.9681 117.886 55.9094C117.817 55.8507 117.756 55.76 117.702 55.6373L117.238 54.5651H114.382L113.925 55.6373C113.872 55.7654 113.813 55.8587 113.749 55.9174C113.685 55.9707 113.6 55.9974 113.493 55.9974ZM115.806 51.2205L114.678 53.893H116.958L115.822 51.2205H115.806ZM136.597 55.9974C136.319 55.9974 136.18 55.8561 136.18 55.5733V50.7244C136.18 50.4417 136.322 50.3003 136.605 50.3003H138.517C139.125 50.3003 139.594 50.447 139.925 50.7404C140.256 51.0284 140.421 51.4338 140.421 51.9566C140.421 52.378 140.309 52.7248 140.085 52.9968C139.861 53.2635 139.544 53.4422 139.133 53.5329C139.389 53.6183 139.605 53.8237 139.781 54.1491L140.469 55.4293C140.549 55.5733 140.565 55.704 140.517 55.8214C140.469 55.9387 140.36 55.9974 140.189 55.9974C140.072 55.9974 139.976 55.9734 139.901 55.9254C139.827 55.8774 139.763 55.8 139.709 55.6934L138.869 54.141C138.757 53.933 138.626 53.7943 138.477 53.725C138.333 53.6503 138.146 53.6129 137.917 53.6129H137.013V55.5733C137.013 55.8561 136.874 55.9974 136.597 55.9974ZM137.013 52.9888H138.381C139.202 52.9888 139.613 52.6501 139.613 51.9726C139.613 51.3005 139.202 50.9644 138.381 50.9644H137.013V52.9888ZM158.807 55.9414C158.508 55.9414 158.359 55.792 158.359 55.4933V50.7484C158.359 50.4497 158.508 50.3003 158.807 50.3003H161.728C161.957 50.3003 162.072 50.4096 162.072 50.6284C162.072 50.8577 161.957 50.9724 161.728 50.9724H159.159V52.7408H161.552C161.781 52.7408 161.896 52.8528 161.896 53.0768C161.896 53.3009 161.781 53.4129 161.552 53.4129H159.159V55.2693H161.728C161.957 55.2693 162.072 55.3813 162.072 55.6053C162.072 55.8294 161.957 55.9414 161.728 55.9414H158.807Z" fill="white"/>
</svg>
